<svg xmlns="http://www.w3.org/2000/svg" viewBox="0 0 1200 800" role="img" aria-label="El búho se presenta a Lumi">
  <defs>
    <linearGradient id="bg2-3" x1="0" y1="0" x2="0" y2="1">
      <stop offset="0%" stop-color="#FFF7E6"/>
      <stop offset="100%" stop-color="#7ED9A6"/>
    </linearGradient>
  </defs>
  <rect width="1200" height="800" fill="url(#bg2-3)"/>
  <!-- Suelo -->
  <ellipse cx="600" cy="780" rx="700" ry="60" fill="#5FBF88"/>
  <!-- Búho a la derecha -->
  <g transform="translate(800 500)">
    <ellipse cx="0" cy="20" rx="100" ry="120" fill="#C8A878"/>
    <ellipse cx="0" cy="40" rx="65" ry="80" fill="#FFF7E6"/>
    <ellipse cx="0" cy="-60" rx="85" ry="70" fill="#C8A878"/>
    <polygon points="-60,-100 -40,-130 -25,-90" fill="#C8A878"/>
    <polygon points="60,-100 40,-130 25,-90" fill="#C8A878"/>
    <circle cx="-25" cy="-55" r="25" fill="#FFF7E6" stroke="#3B2E5A" stroke-width="4"/>
    <circle cx="25" cy="-55" r="25" fill="#FFF7E6" stroke="#3B2E5A" stroke-width="4"/>
    <line x1="-2" y1="-55" x2="2" y2="-55" stroke="#3B2E5A" stroke-width="4"/>
    <circle cx="-25" cy="-55" r="8" fill="#3B2E5A"/>
    <circle cx="25" cy="-55" r="8" fill="#3B2E5A"/>
    <polygon points="0,-25 -8,-12 8,-12" fill="#F58AB5"/>
    <!-- ala saludando -->
    <ellipse cx="-110" cy="0" rx="40" ry="60" fill="#A68654" transform="rotate(-25 -110 0)"/>
  </g>
  <!-- Lumi a la izquierda -->
  <g transform="translate(350 600)">
    <circle cx="0" cy="0" r="65" fill="#FFD66B"/>
    <circle cx="0" cy="0" r="100" fill="#FFD66B" opacity="0.25"/>
    <circle cx="-15" cy="-5" r="7" fill="#3B2E5A"/>
    <circle cx="15" cy="-5" r="7" fill="#3B2E5A"/>
    <path d="M-18 15 q18 18 36 0" stroke="#3B2E5A" stroke-width="3" fill="none" stroke-linecap="round"/>
    <circle cx="-30" cy="10" r="6" fill="#F58AB5" opacity="0.6"/>
    <circle cx="30" cy="10" r="6" fill="#F58AB5" opacity="0.6"/>
    <polygon points="60,0 95,-15 88,5 110,15 85,18 88,40 70,20" fill="#FFD66B" stroke="#F58AB5" stroke-width="2"/>
  </g>
  <text x="40" y="60" font-family="Comic Sans MS, Fredoka, sans-serif" font-size="28" fill="#3B2E5A" opacity="0.7">Cap 2 · Panel 3 — Mucho gusto, Lumi</text>
</svg>
